<mxfile host="www.draw.io" modified="2020-02-05T16:29:22.659Z" agent="Mozilla/5.0 (Windows NT 10.0; Win64; x64) AppleWebKit/537.36 (KHTML, like Gecko) Chrome/79.0.3945.130 Safari/537.36" etag="2kpOMb8HDlYktCxk7bEz" version="12.6.5" type="github">
  <diagram id="T6TtcP_ByoEV5wqr8vDN" name="Page-1">
    <mxGraphModel dx="2249" dy="762" grid="1" gridSize="10" guides="1" tooltips="1" connect="1" arrows="1" fold="1" page="1" pageScale="1" pageWidth="827" pageHeight="1169" math="0" shadow="0">
      <root>
        <mxCell id="0"/>
        <mxCell id="1" parent="0"/>
        <mxCell id="ZsCwSDWXHQRcliCqkR90-1" value="ОПМ" style="swimlane;fontStyle=0;childLayout=stackLayout;horizontal=1;startSize=26;fillColor=#e0e0e0;horizontalStack=0;resizeParent=1;resizeParentMax=0;resizeLast=0;collapsible=1;marginBottom=0;swimlaneFillColor=#ffffff;align=center;fontSize=14;" parent="1" vertex="1">
          <mxGeometry x="590" y="70" width="160" height="118" as="geometry"/>
        </mxCell>
        <mxCell id="ZsCwSDWXHQRcliCqkR90-2" value="id ОПМ" style="shape=partialRectangle;top=0;left=0;right=0;bottom=1;align=left;verticalAlign=middle;fillColor=none;spacingLeft=34;spacingRight=4;overflow=hidden;rotatable=0;points=[[0,0.5],[1,0.5]];portConstraint=eastwest;dropTarget=0;fontStyle=5;fontSize=12;" parent="ZsCwSDWXHQRcliCqkR90-1" vertex="1">
          <mxGeometry y="26" width="160" height="30" as="geometry"/>
        </mxCell>
        <mxCell id="ZsCwSDWXHQRcliCqkR90-3" value="PK" style="shape=partialRectangle;top=0;left=0;bottom=0;fillColor=none;align=left;verticalAlign=middle;spacingLeft=4;spacingRight=4;overflow=hidden;rotatable=0;points=[];portConstraint=eastwest;part=1;fontSize=12;" parent="ZsCwSDWXHQRcliCqkR90-2" vertex="1" connectable="0">
          <mxGeometry width="30" height="30" as="geometry"/>
        </mxCell>
        <mxCell id="ZsCwSDWXHQRcliCqkR90-4" value="Название" style="shape=partialRectangle;top=0;left=0;right=0;bottom=0;align=left;verticalAlign=top;fillColor=none;spacingLeft=34;spacingRight=4;overflow=hidden;rotatable=0;points=[[0,0.5],[1,0.5]];portConstraint=eastwest;dropTarget=0;fontSize=12;" parent="ZsCwSDWXHQRcliCqkR90-1" vertex="1">
          <mxGeometry y="56" width="160" height="26" as="geometry"/>
        </mxCell>
        <mxCell id="ZsCwSDWXHQRcliCqkR90-5" value="" style="shape=partialRectangle;top=0;left=0;bottom=0;fillColor=none;align=left;verticalAlign=top;spacingLeft=4;spacingRight=4;overflow=hidden;rotatable=0;points=[];portConstraint=eastwest;part=1;fontSize=12;" parent="ZsCwSDWXHQRcliCqkR90-4" vertex="1" connectable="0">
          <mxGeometry width="30" height="26" as="geometry"/>
        </mxCell>
        <mxCell id="ZsCwSDWXHQRcliCqkR90-6" value="примечание" style="shape=partialRectangle;top=0;left=0;right=0;bottom=0;align=left;verticalAlign=top;fillColor=none;spacingLeft=34;spacingRight=4;overflow=hidden;rotatable=0;points=[[0,0.5],[1,0.5]];portConstraint=eastwest;dropTarget=0;fontSize=12;" parent="ZsCwSDWXHQRcliCqkR90-1" vertex="1">
          <mxGeometry y="82" width="160" height="26" as="geometry"/>
        </mxCell>
        <mxCell id="ZsCwSDWXHQRcliCqkR90-7" value="" style="shape=partialRectangle;top=0;left=0;bottom=0;fillColor=none;align=left;verticalAlign=top;spacingLeft=4;spacingRight=4;overflow=hidden;rotatable=0;points=[];portConstraint=eastwest;part=1;fontSize=12;" parent="ZsCwSDWXHQRcliCqkR90-6" vertex="1" connectable="0">
          <mxGeometry width="30" height="26" as="geometry"/>
        </mxCell>
        <mxCell id="ZsCwSDWXHQRcliCqkR90-10" value="" style="shape=partialRectangle;top=0;left=0;right=0;bottom=0;align=left;verticalAlign=top;fillColor=none;spacingLeft=34;spacingRight=4;overflow=hidden;rotatable=0;points=[[0,0.5],[1,0.5]];portConstraint=eastwest;dropTarget=0;fontSize=12;" parent="ZsCwSDWXHQRcliCqkR90-1" vertex="1">
          <mxGeometry y="108" width="160" height="10" as="geometry"/>
        </mxCell>
        <mxCell id="ZsCwSDWXHQRcliCqkR90-11" value="" style="shape=partialRectangle;top=0;left=0;bottom=0;fillColor=none;align=left;verticalAlign=top;spacingLeft=4;spacingRight=4;overflow=hidden;rotatable=0;points=[];portConstraint=eastwest;part=1;fontSize=12;" parent="ZsCwSDWXHQRcliCqkR90-10" vertex="1" connectable="0">
          <mxGeometry width="30" height="10" as="geometry"/>
        </mxCell>
        <mxCell id="ZsCwSDWXHQRcliCqkR90-12" value="Договор с ОПМ" style="swimlane;fontStyle=0;childLayout=stackLayout;horizontal=1;startSize=26;fillColor=#e0e0e0;horizontalStack=0;resizeParent=1;resizeParentMax=0;resizeLast=0;collapsible=1;marginBottom=0;swimlaneFillColor=#ffffff;align=center;fontSize=14;" parent="1" vertex="1">
          <mxGeometry x="800" y="460" width="200" height="300" as="geometry"/>
        </mxCell>
        <mxCell id="ZsCwSDWXHQRcliCqkR90-13" value="id Договора" style="shape=partialRectangle;top=0;left=0;right=0;bottom=1;align=left;verticalAlign=middle;fillColor=none;spacingLeft=34;spacingRight=4;overflow=hidden;rotatable=0;points=[[0,0.5],[1,0.5]];portConstraint=eastwest;dropTarget=0;fontStyle=5;fontSize=12;" parent="ZsCwSDWXHQRcliCqkR90-12" vertex="1">
          <mxGeometry y="26" width="200" height="30" as="geometry"/>
        </mxCell>
        <mxCell id="ZsCwSDWXHQRcliCqkR90-14" value="PK" style="shape=partialRectangle;top=0;left=0;bottom=0;fillColor=none;align=left;verticalAlign=middle;spacingLeft=4;spacingRight=4;overflow=hidden;rotatable=0;points=[];portConstraint=eastwest;part=1;fontSize=12;" parent="ZsCwSDWXHQRcliCqkR90-13" vertex="1" connectable="0">
          <mxGeometry width="30" height="30" as="geometry"/>
        </mxCell>
        <mxCell id="ZsCwSDWXHQRcliCqkR90-15" value="id ОПМ" style="shape=partialRectangle;top=0;left=0;right=0;bottom=0;align=left;verticalAlign=top;fillColor=none;spacingLeft=34;spacingRight=4;overflow=hidden;rotatable=0;points=[[0,0.5],[1,0.5]];portConstraint=eastwest;dropTarget=0;fontSize=12;" parent="ZsCwSDWXHQRcliCqkR90-12" vertex="1">
          <mxGeometry y="56" width="200" height="26" as="geometry"/>
        </mxCell>
        <mxCell id="ZsCwSDWXHQRcliCqkR90-16" value="" style="shape=partialRectangle;top=0;left=0;bottom=0;fillColor=none;align=left;verticalAlign=top;spacingLeft=4;spacingRight=4;overflow=hidden;rotatable=0;points=[];portConstraint=eastwest;part=1;fontSize=12;" parent="ZsCwSDWXHQRcliCqkR90-15" vertex="1" connectable="0">
          <mxGeometry width="30" height="26" as="geometry"/>
        </mxCell>
        <mxCell id="NCW903Lwlvp0PCIu4Wwk-44" value="id региона" style="shape=partialRectangle;top=0;left=0;right=0;bottom=0;align=left;verticalAlign=top;fillColor=none;spacingLeft=34;spacingRight=4;overflow=hidden;rotatable=0;points=[[0,0.5],[1,0.5]];portConstraint=eastwest;dropTarget=0;fontSize=12;" vertex="1" parent="ZsCwSDWXHQRcliCqkR90-12">
          <mxGeometry y="82" width="200" height="26" as="geometry"/>
        </mxCell>
        <mxCell id="NCW903Lwlvp0PCIu4Wwk-45" value="" style="shape=partialRectangle;top=0;left=0;bottom=0;fillColor=none;align=left;verticalAlign=top;spacingLeft=4;spacingRight=4;overflow=hidden;rotatable=0;points=[];portConstraint=eastwest;part=1;fontSize=12;" vertex="1" connectable="0" parent="NCW903Lwlvp0PCIu4Wwk-44">
          <mxGeometry width="30" height="26" as="geometry"/>
        </mxCell>
        <mxCell id="NCW903Lwlvp0PCIu4Wwk-46" value="тип договора" style="shape=partialRectangle;top=0;left=0;right=0;bottom=0;align=left;verticalAlign=top;fillColor=none;spacingLeft=34;spacingRight=4;overflow=hidden;rotatable=0;points=[[0,0.5],[1,0.5]];portConstraint=eastwest;dropTarget=0;fontSize=12;" vertex="1" parent="ZsCwSDWXHQRcliCqkR90-12">
          <mxGeometry y="108" width="200" height="26" as="geometry"/>
        </mxCell>
        <mxCell id="NCW903Lwlvp0PCIu4Wwk-47" value="" style="shape=partialRectangle;top=0;left=0;bottom=0;fillColor=none;align=left;verticalAlign=top;spacingLeft=4;spacingRight=4;overflow=hidden;rotatable=0;points=[];portConstraint=eastwest;part=1;fontSize=12;" vertex="1" connectable="0" parent="NCW903Lwlvp0PCIu4Wwk-46">
          <mxGeometry width="30" height="26" as="geometry"/>
        </mxCell>
        <mxCell id="ZsCwSDWXHQRcliCqkR90-17" value="email для запроса" style="shape=partialRectangle;top=0;left=0;right=0;bottom=0;align=left;verticalAlign=top;fillColor=none;spacingLeft=34;spacingRight=4;overflow=hidden;rotatable=0;points=[[0,0.5],[1,0.5]];portConstraint=eastwest;dropTarget=0;fontSize=12;" parent="ZsCwSDWXHQRcliCqkR90-12" vertex="1">
          <mxGeometry y="134" width="200" height="26" as="geometry"/>
        </mxCell>
        <mxCell id="ZsCwSDWXHQRcliCqkR90-18" value="" style="shape=partialRectangle;top=0;left=0;bottom=0;fillColor=none;align=left;verticalAlign=top;spacingLeft=4;spacingRight=4;overflow=hidden;rotatable=0;points=[];portConstraint=eastwest;part=1;fontSize=12;" parent="ZsCwSDWXHQRcliCqkR90-17" vertex="1" connectable="0">
          <mxGeometry width="30" height="26" as="geometry"/>
        </mxCell>
        <mxCell id="ZsCwSDWXHQRcliCqkR90-38" value="телефон для запроса" style="shape=partialRectangle;top=0;left=0;right=0;bottom=0;align=left;verticalAlign=top;fillColor=none;spacingLeft=34;spacingRight=4;overflow=hidden;rotatable=0;points=[[0,0.5],[1,0.5]];portConstraint=eastwest;dropTarget=0;fontSize=12;" parent="ZsCwSDWXHQRcliCqkR90-12" vertex="1">
          <mxGeometry y="160" width="200" height="26" as="geometry"/>
        </mxCell>
        <mxCell id="ZsCwSDWXHQRcliCqkR90-39" value="" style="shape=partialRectangle;top=0;left=0;bottom=0;fillColor=none;align=left;verticalAlign=top;spacingLeft=4;spacingRight=4;overflow=hidden;rotatable=0;points=[];portConstraint=eastwest;part=1;fontSize=12;" parent="ZsCwSDWXHQRcliCqkR90-38" vertex="1" connectable="0">
          <mxGeometry width="30" height="26" as="geometry"/>
        </mxCell>
        <mxCell id="ZsCwSDWXHQRcliCqkR90-25" value="Файл договора" style="shape=partialRectangle;top=0;left=0;right=0;bottom=0;align=left;verticalAlign=top;fillColor=none;spacingLeft=34;spacingRight=4;overflow=hidden;rotatable=0;points=[[0,0.5],[1,0.5]];portConstraint=eastwest;dropTarget=0;fontSize=12;" parent="ZsCwSDWXHQRcliCqkR90-12" vertex="1">
          <mxGeometry y="186" width="200" height="26" as="geometry"/>
        </mxCell>
        <mxCell id="ZsCwSDWXHQRcliCqkR90-26" value="" style="shape=partialRectangle;top=0;left=0;bottom=0;fillColor=none;align=left;verticalAlign=top;spacingLeft=4;spacingRight=4;overflow=hidden;rotatable=0;points=[];portConstraint=eastwest;part=1;fontSize=12;" parent="ZsCwSDWXHQRcliCqkR90-25" vertex="1" connectable="0">
          <mxGeometry width="30" height="26" as="geometry"/>
        </mxCell>
        <mxCell id="ZsCwSDWXHQRcliCqkR90-19" value="Файлы акта" style="shape=partialRectangle;top=0;left=0;right=0;bottom=0;align=left;verticalAlign=top;fillColor=none;spacingLeft=34;spacingRight=4;overflow=hidden;rotatable=0;points=[[0,0.5],[1,0.5]];portConstraint=eastwest;dropTarget=0;fontSize=12;" parent="ZsCwSDWXHQRcliCqkR90-12" vertex="1">
          <mxGeometry y="212" width="200" height="26" as="geometry"/>
        </mxCell>
        <mxCell id="ZsCwSDWXHQRcliCqkR90-20" value="" style="shape=partialRectangle;top=0;left=0;bottom=0;fillColor=none;align=left;verticalAlign=top;spacingLeft=4;spacingRight=4;overflow=hidden;rotatable=0;points=[];portConstraint=eastwest;part=1;fontSize=12;" parent="ZsCwSDWXHQRcliCqkR90-19" vertex="1" connectable="0">
          <mxGeometry width="30" height="26" as="geometry"/>
        </mxCell>
        <mxCell id="NCW903Lwlvp0PCIu4Wwk-39" value="Файлы заказа" style="shape=partialRectangle;top=0;left=0;right=0;bottom=0;align=left;verticalAlign=top;fillColor=none;spacingLeft=34;spacingRight=4;overflow=hidden;rotatable=0;points=[[0,0.5],[1,0.5]];portConstraint=eastwest;dropTarget=0;fontSize=12;" vertex="1" parent="ZsCwSDWXHQRcliCqkR90-12">
          <mxGeometry y="238" width="200" height="26" as="geometry"/>
        </mxCell>
        <mxCell id="NCW903Lwlvp0PCIu4Wwk-40" value="" style="shape=partialRectangle;top=0;left=0;bottom=0;fillColor=none;align=left;verticalAlign=top;spacingLeft=4;spacingRight=4;overflow=hidden;rotatable=0;points=[];portConstraint=eastwest;part=1;fontSize=12;" vertex="1" connectable="0" parent="NCW903Lwlvp0PCIu4Wwk-39">
          <mxGeometry width="30" height="26" as="geometry"/>
        </mxCell>
        <mxCell id="NCW903Lwlvp0PCIu4Wwk-37" value="примечание" style="shape=partialRectangle;top=0;left=0;right=0;bottom=0;align=left;verticalAlign=top;fillColor=none;spacingLeft=34;spacingRight=4;overflow=hidden;rotatable=0;points=[[0,0.5],[1,0.5]];portConstraint=eastwest;dropTarget=0;fontSize=12;" vertex="1" parent="ZsCwSDWXHQRcliCqkR90-12">
          <mxGeometry y="264" width="200" height="26" as="geometry"/>
        </mxCell>
        <mxCell id="NCW903Lwlvp0PCIu4Wwk-38" value="" style="shape=partialRectangle;top=0;left=0;bottom=0;fillColor=none;align=left;verticalAlign=top;spacingLeft=4;spacingRight=4;overflow=hidden;rotatable=0;points=[];portConstraint=eastwest;part=1;fontSize=12;" vertex="1" connectable="0" parent="NCW903Lwlvp0PCIu4Wwk-37">
          <mxGeometry width="30" height="26" as="geometry"/>
        </mxCell>
        <mxCell id="ZsCwSDWXHQRcliCqkR90-21" value="" style="shape=partialRectangle;top=0;left=0;right=0;bottom=0;align=left;verticalAlign=top;fillColor=none;spacingLeft=34;spacingRight=4;overflow=hidden;rotatable=0;points=[[0,0.5],[1,0.5]];portConstraint=eastwest;dropTarget=0;fontSize=12;" parent="ZsCwSDWXHQRcliCqkR90-12" vertex="1">
          <mxGeometry y="290" width="200" height="10" as="geometry"/>
        </mxCell>
        <mxCell id="ZsCwSDWXHQRcliCqkR90-22" value="" style="shape=partialRectangle;top=0;left=0;bottom=0;fillColor=none;align=left;verticalAlign=top;spacingLeft=4;spacingRight=4;overflow=hidden;rotatable=0;points=[];portConstraint=eastwest;part=1;fontSize=12;" parent="ZsCwSDWXHQRcliCqkR90-21" vertex="1" connectable="0">
          <mxGeometry width="30" height="10" as="geometry"/>
        </mxCell>
        <mxCell id="ZsCwSDWXHQRcliCqkR90-27" value="Населенные пункты" style="swimlane;fontStyle=0;childLayout=stackLayout;horizontal=1;startSize=26;fillColor=#e0e0e0;horizontalStack=0;resizeParent=1;resizeParentMax=0;resizeLast=0;collapsible=1;marginBottom=0;swimlaneFillColor=#ffffff;align=center;fontSize=14;" parent="1" vertex="1">
          <mxGeometry x="170" y="70" width="220" height="144" as="geometry"/>
        </mxCell>
        <mxCell id="ZsCwSDWXHQRcliCqkR90-28" value="id города" style="shape=partialRectangle;top=0;left=0;right=0;bottom=1;align=left;verticalAlign=middle;fillColor=none;spacingLeft=34;spacingRight=4;overflow=hidden;rotatable=0;points=[[0,0.5],[1,0.5]];portConstraint=eastwest;dropTarget=0;fontStyle=5;fontSize=12;" parent="ZsCwSDWXHQRcliCqkR90-27" vertex="1">
          <mxGeometry y="26" width="220" height="30" as="geometry"/>
        </mxCell>
        <mxCell id="ZsCwSDWXHQRcliCqkR90-29" value="PK" style="shape=partialRectangle;top=0;left=0;bottom=0;fillColor=none;align=left;verticalAlign=middle;spacingLeft=4;spacingRight=4;overflow=hidden;rotatable=0;points=[];portConstraint=eastwest;part=1;fontSize=12;" parent="ZsCwSDWXHQRcliCqkR90-28" vertex="1" connectable="0">
          <mxGeometry width="30" height="30" as="geometry"/>
        </mxCell>
        <mxCell id="ZsCwSDWXHQRcliCqkR90-30" value="id региона" style="shape=partialRectangle;top=0;left=0;right=0;bottom=0;align=left;verticalAlign=top;fillColor=none;spacingLeft=34;spacingRight=4;overflow=hidden;rotatable=0;points=[[0,0.5],[1,0.5]];portConstraint=eastwest;dropTarget=0;fontSize=12;" parent="ZsCwSDWXHQRcliCqkR90-27" vertex="1">
          <mxGeometry y="56" width="220" height="26" as="geometry"/>
        </mxCell>
        <mxCell id="ZsCwSDWXHQRcliCqkR90-31" value="" style="shape=partialRectangle;top=0;left=0;bottom=0;fillColor=none;align=left;verticalAlign=top;spacingLeft=4;spacingRight=4;overflow=hidden;rotatable=0;points=[];portConstraint=eastwest;part=1;fontSize=12;" parent="ZsCwSDWXHQRcliCqkR90-30" vertex="1" connectable="0">
          <mxGeometry width="30" height="26" as="geometry"/>
        </mxCell>
        <mxCell id="ZsCwSDWXHQRcliCqkR90-32" value="примечание" style="shape=partialRectangle;top=0;left=0;right=0;bottom=0;align=left;verticalAlign=top;fillColor=none;spacingLeft=34;spacingRight=4;overflow=hidden;rotatable=0;points=[[0,0.5],[1,0.5]];portConstraint=eastwest;dropTarget=0;fontSize=12;" parent="ZsCwSDWXHQRcliCqkR90-27" vertex="1">
          <mxGeometry y="82" width="220" height="26" as="geometry"/>
        </mxCell>
        <mxCell id="ZsCwSDWXHQRcliCqkR90-33" value="" style="shape=partialRectangle;top=0;left=0;bottom=0;fillColor=none;align=left;verticalAlign=top;spacingLeft=4;spacingRight=4;overflow=hidden;rotatable=0;points=[];portConstraint=eastwest;part=1;fontSize=12;" parent="ZsCwSDWXHQRcliCqkR90-32" vertex="1" connectable="0">
          <mxGeometry width="30" height="26" as="geometry"/>
        </mxCell>
        <mxCell id="NCW903Lwlvp0PCIu4Wwk-28" value="примечание" style="shape=partialRectangle;top=0;left=0;right=0;bottom=0;align=left;verticalAlign=top;fillColor=none;spacingLeft=34;spacingRight=4;overflow=hidden;rotatable=0;points=[[0,0.5],[1,0.5]];portConstraint=eastwest;dropTarget=0;fontSize=12;" vertex="1" parent="ZsCwSDWXHQRcliCqkR90-27">
          <mxGeometry y="108" width="220" height="26" as="geometry"/>
        </mxCell>
        <mxCell id="NCW903Lwlvp0PCIu4Wwk-29" value="" style="shape=partialRectangle;top=0;left=0;bottom=0;fillColor=none;align=left;verticalAlign=top;spacingLeft=4;spacingRight=4;overflow=hidden;rotatable=0;points=[];portConstraint=eastwest;part=1;fontSize=12;" vertex="1" connectable="0" parent="NCW903Lwlvp0PCIu4Wwk-28">
          <mxGeometry width="30" height="26" as="geometry"/>
        </mxCell>
        <mxCell id="ZsCwSDWXHQRcliCqkR90-36" value="" style="shape=partialRectangle;top=0;left=0;right=0;bottom=0;align=left;verticalAlign=top;fillColor=none;spacingLeft=34;spacingRight=4;overflow=hidden;rotatable=0;points=[[0,0.5],[1,0.5]];portConstraint=eastwest;dropTarget=0;fontSize=12;" parent="ZsCwSDWXHQRcliCqkR90-27" vertex="1">
          <mxGeometry y="134" width="220" height="10" as="geometry"/>
        </mxCell>
        <mxCell id="ZsCwSDWXHQRcliCqkR90-37" value="" style="shape=partialRectangle;top=0;left=0;bottom=0;fillColor=none;align=left;verticalAlign=top;spacingLeft=4;spacingRight=4;overflow=hidden;rotatable=0;points=[];portConstraint=eastwest;part=1;fontSize=12;" parent="ZsCwSDWXHQRcliCqkR90-36" vertex="1" connectable="0">
          <mxGeometry width="30" height="10" as="geometry"/>
        </mxCell>
        <mxCell id="NCW903Lwlvp0PCIu4Wwk-1" value="Регионы" style="swimlane;fontStyle=0;childLayout=stackLayout;horizontal=1;startSize=26;fillColor=#e0e0e0;horizontalStack=0;resizeParent=1;resizeParentMax=0;resizeLast=0;collapsible=1;marginBottom=0;swimlaneFillColor=#ffffff;align=center;fontSize=14;" vertex="1" parent="1">
          <mxGeometry x="-160" y="150" width="220" height="170" as="geometry"/>
        </mxCell>
        <mxCell id="NCW903Lwlvp0PCIu4Wwk-2" value="id региона" style="shape=partialRectangle;top=0;left=0;right=0;bottom=1;align=left;verticalAlign=middle;fillColor=none;spacingLeft=34;spacingRight=4;overflow=hidden;rotatable=0;points=[[0,0.5],[1,0.5]];portConstraint=eastwest;dropTarget=0;fontStyle=5;fontSize=12;" vertex="1" parent="NCW903Lwlvp0PCIu4Wwk-1">
          <mxGeometry y="26" width="220" height="30" as="geometry"/>
        </mxCell>
        <mxCell id="NCW903Lwlvp0PCIu4Wwk-3" value="PK" style="shape=partialRectangle;top=0;left=0;bottom=0;fillColor=none;align=left;verticalAlign=middle;spacingLeft=4;spacingRight=4;overflow=hidden;rotatable=0;points=[];portConstraint=eastwest;part=1;fontSize=12;" vertex="1" connectable="0" parent="NCW903Lwlvp0PCIu4Wwk-2">
          <mxGeometry width="30" height="30" as="geometry"/>
        </mxCell>
        <mxCell id="NCW903Lwlvp0PCIu4Wwk-4" value="Регион" style="shape=partialRectangle;top=0;left=0;right=0;bottom=0;align=left;verticalAlign=top;fillColor=none;spacingLeft=34;spacingRight=4;overflow=hidden;rotatable=0;points=[[0,0.5],[1,0.5]];portConstraint=eastwest;dropTarget=0;fontSize=12;" vertex="1" parent="NCW903Lwlvp0PCIu4Wwk-1">
          <mxGeometry y="56" width="220" height="26" as="geometry"/>
        </mxCell>
        <mxCell id="NCW903Lwlvp0PCIu4Wwk-5" value="" style="shape=partialRectangle;top=0;left=0;bottom=0;fillColor=none;align=left;verticalAlign=top;spacingLeft=4;spacingRight=4;overflow=hidden;rotatable=0;points=[];portConstraint=eastwest;part=1;fontSize=12;" vertex="1" connectable="0" parent="NCW903Lwlvp0PCIu4Wwk-4">
          <mxGeometry width="30" height="26" as="geometry"/>
        </mxCell>
        <mxCell id="NCW903Lwlvp0PCIu4Wwk-6" value="Признак 2Э/1Э/нет ГУТС" style="shape=partialRectangle;top=0;left=0;right=0;bottom=0;align=left;verticalAlign=top;fillColor=none;spacingLeft=34;spacingRight=4;overflow=hidden;rotatable=0;points=[[0,0.5],[1,0.5]];portConstraint=eastwest;dropTarget=0;fontSize=12;" vertex="1" parent="NCW903Lwlvp0PCIu4Wwk-1">
          <mxGeometry y="82" width="220" height="26" as="geometry"/>
        </mxCell>
        <mxCell id="NCW903Lwlvp0PCIu4Wwk-7" value="" style="shape=partialRectangle;top=0;left=0;bottom=0;fillColor=none;align=left;verticalAlign=top;spacingLeft=4;spacingRight=4;overflow=hidden;rotatable=0;points=[];portConstraint=eastwest;part=1;fontSize=12;" vertex="1" connectable="0" parent="NCW903Lwlvp0PCIu4Wwk-6">
          <mxGeometry width="30" height="26" as="geometry"/>
        </mxCell>
        <mxCell id="NCW903Lwlvp0PCIu4Wwk-10" value="примечание" style="shape=partialRectangle;top=0;left=0;right=0;bottom=0;align=left;verticalAlign=top;fillColor=none;spacingLeft=34;spacingRight=4;overflow=hidden;rotatable=0;points=[[0,0.5],[1,0.5]];portConstraint=eastwest;dropTarget=0;fontSize=12;" vertex="1" parent="NCW903Lwlvp0PCIu4Wwk-1">
          <mxGeometry y="108" width="220" height="26" as="geometry"/>
        </mxCell>
        <mxCell id="NCW903Lwlvp0PCIu4Wwk-11" value="" style="shape=partialRectangle;top=0;left=0;bottom=0;fillColor=none;align=left;verticalAlign=top;spacingLeft=4;spacingRight=4;overflow=hidden;rotatable=0;points=[];portConstraint=eastwest;part=1;fontSize=12;" vertex="1" connectable="0" parent="NCW903Lwlvp0PCIu4Wwk-10">
          <mxGeometry width="30" height="26" as="geometry"/>
        </mxCell>
        <mxCell id="NCW903Lwlvp0PCIu4Wwk-8" value="" style="shape=partialRectangle;top=0;left=0;right=0;bottom=0;align=left;verticalAlign=top;fillColor=none;spacingLeft=34;spacingRight=4;overflow=hidden;rotatable=0;points=[[0,0.5],[1,0.5]];portConstraint=eastwest;dropTarget=0;fontSize=12;" vertex="1" parent="NCW903Lwlvp0PCIu4Wwk-1">
          <mxGeometry y="134" width="220" height="26" as="geometry"/>
        </mxCell>
        <mxCell id="NCW903Lwlvp0PCIu4Wwk-9" value="" style="shape=partialRectangle;top=0;left=0;bottom=0;fillColor=none;align=left;verticalAlign=top;spacingLeft=4;spacingRight=4;overflow=hidden;rotatable=0;points=[];portConstraint=eastwest;part=1;fontSize=12;" vertex="1" connectable="0" parent="NCW903Lwlvp0PCIu4Wwk-8">
          <mxGeometry width="30" height="26" as="geometry"/>
        </mxCell>
        <mxCell id="NCW903Lwlvp0PCIu4Wwk-12" value="" style="shape=partialRectangle;top=0;left=0;right=0;bottom=0;align=left;verticalAlign=top;fillColor=none;spacingLeft=34;spacingRight=4;overflow=hidden;rotatable=0;points=[[0,0.5],[1,0.5]];portConstraint=eastwest;dropTarget=0;fontSize=12;" vertex="1" parent="NCW903Lwlvp0PCIu4Wwk-1">
          <mxGeometry y="160" width="220" height="10" as="geometry"/>
        </mxCell>
        <mxCell id="NCW903Lwlvp0PCIu4Wwk-13" value="" style="shape=partialRectangle;top=0;left=0;bottom=0;fillColor=none;align=left;verticalAlign=top;spacingLeft=4;spacingRight=4;overflow=hidden;rotatable=0;points=[];portConstraint=eastwest;part=1;fontSize=12;" vertex="1" connectable="0" parent="NCW903Lwlvp0PCIu4Wwk-12">
          <mxGeometry width="30" height="10" as="geometry"/>
        </mxCell>
        <mxCell id="NCW903Lwlvp0PCIu4Wwk-15" value="Наличие ОПМ" style="swimlane;fontStyle=0;childLayout=stackLayout;horizontal=1;startSize=26;fillColor=#e0e0e0;horizontalStack=0;resizeParent=1;resizeParentMax=0;resizeLast=0;collapsible=1;marginBottom=0;swimlaneFillColor=#ffffff;align=center;fontSize=14;" vertex="1" parent="1">
          <mxGeometry x="440" y="310" width="160" height="144" as="geometry"/>
        </mxCell>
        <mxCell id="NCW903Lwlvp0PCIu4Wwk-16" value="id" style="shape=partialRectangle;top=0;left=0;right=0;bottom=1;align=left;verticalAlign=middle;fillColor=none;spacingLeft=34;spacingRight=4;overflow=hidden;rotatable=0;points=[[0,0.5],[1,0.5]];portConstraint=eastwest;dropTarget=0;fontStyle=5;fontSize=12;" vertex="1" parent="NCW903Lwlvp0PCIu4Wwk-15">
          <mxGeometry y="26" width="160" height="30" as="geometry"/>
        </mxCell>
        <mxCell id="NCW903Lwlvp0PCIu4Wwk-17" value="PK" style="shape=partialRectangle;top=0;left=0;bottom=0;fillColor=none;align=left;verticalAlign=middle;spacingLeft=4;spacingRight=4;overflow=hidden;rotatable=0;points=[];portConstraint=eastwest;part=1;fontSize=12;" vertex="1" connectable="0" parent="NCW903Lwlvp0PCIu4Wwk-16">
          <mxGeometry width="30" height="30" as="geometry"/>
        </mxCell>
        <mxCell id="NCW903Lwlvp0PCIu4Wwk-18" value="id города" style="shape=partialRectangle;top=0;left=0;right=0;bottom=0;align=left;verticalAlign=top;fillColor=none;spacingLeft=34;spacingRight=4;overflow=hidden;rotatable=0;points=[[0,0.5],[1,0.5]];portConstraint=eastwest;dropTarget=0;fontSize=12;" vertex="1" parent="NCW903Lwlvp0PCIu4Wwk-15">
          <mxGeometry y="56" width="160" height="26" as="geometry"/>
        </mxCell>
        <mxCell id="NCW903Lwlvp0PCIu4Wwk-19" value="" style="shape=partialRectangle;top=0;left=0;bottom=0;fillColor=none;align=left;verticalAlign=top;spacingLeft=4;spacingRight=4;overflow=hidden;rotatable=0;points=[];portConstraint=eastwest;part=1;fontSize=12;" vertex="1" connectable="0" parent="NCW903Lwlvp0PCIu4Wwk-18">
          <mxGeometry width="30" height="26" as="geometry"/>
        </mxCell>
        <mxCell id="NCW903Lwlvp0PCIu4Wwk-20" value="id ОПМ" style="shape=partialRectangle;top=0;left=0;right=0;bottom=0;align=left;verticalAlign=top;fillColor=none;spacingLeft=34;spacingRight=4;overflow=hidden;rotatable=0;points=[[0,0.5],[1,0.5]];portConstraint=eastwest;dropTarget=0;fontSize=12;" vertex="1" parent="NCW903Lwlvp0PCIu4Wwk-15">
          <mxGeometry y="82" width="160" height="26" as="geometry"/>
        </mxCell>
        <mxCell id="NCW903Lwlvp0PCIu4Wwk-21" value="" style="shape=partialRectangle;top=0;left=0;bottom=0;fillColor=none;align=left;verticalAlign=top;spacingLeft=4;spacingRight=4;overflow=hidden;rotatable=0;points=[];portConstraint=eastwest;part=1;fontSize=12;" vertex="1" connectable="0" parent="NCW903Lwlvp0PCIu4Wwk-20">
          <mxGeometry width="30" height="26" as="geometry"/>
        </mxCell>
        <mxCell id="NCW903Lwlvp0PCIu4Wwk-22" value="примечание" style="shape=partialRectangle;top=0;left=0;right=0;bottom=0;align=left;verticalAlign=top;fillColor=none;spacingLeft=34;spacingRight=4;overflow=hidden;rotatable=0;points=[[0,0.5],[1,0.5]];portConstraint=eastwest;dropTarget=0;fontSize=12;" vertex="1" parent="NCW903Lwlvp0PCIu4Wwk-15">
          <mxGeometry y="108" width="160" height="26" as="geometry"/>
        </mxCell>
        <mxCell id="NCW903Lwlvp0PCIu4Wwk-23" value="" style="shape=partialRectangle;top=0;left=0;bottom=0;fillColor=none;align=left;verticalAlign=top;spacingLeft=4;spacingRight=4;overflow=hidden;rotatable=0;points=[];portConstraint=eastwest;part=1;fontSize=12;" vertex="1" connectable="0" parent="NCW903Lwlvp0PCIu4Wwk-22">
          <mxGeometry width="30" height="26" as="geometry"/>
        </mxCell>
        <mxCell id="NCW903Lwlvp0PCIu4Wwk-24" value="" style="shape=partialRectangle;top=0;left=0;right=0;bottom=0;align=left;verticalAlign=top;fillColor=none;spacingLeft=34;spacingRight=4;overflow=hidden;rotatable=0;points=[[0,0.5],[1,0.5]];portConstraint=eastwest;dropTarget=0;fontSize=12;" vertex="1" parent="NCW903Lwlvp0PCIu4Wwk-15">
          <mxGeometry y="134" width="160" height="10" as="geometry"/>
        </mxCell>
        <mxCell id="NCW903Lwlvp0PCIu4Wwk-25" value="" style="shape=partialRectangle;top=0;left=0;bottom=0;fillColor=none;align=left;verticalAlign=top;spacingLeft=4;spacingRight=4;overflow=hidden;rotatable=0;points=[];portConstraint=eastwest;part=1;fontSize=12;" vertex="1" connectable="0" parent="NCW903Lwlvp0PCIu4Wwk-24">
          <mxGeometry width="30" height="10" as="geometry"/>
        </mxCell>
        <mxCell id="NCW903Lwlvp0PCIu4Wwk-33" style="edgeStyle=orthogonalEdgeStyle;rounded=0;orthogonalLoop=1;jettySize=auto;html=1;exitX=0;exitY=0.5;exitDx=0;exitDy=0;entryX=1;entryY=0.5;entryDx=0;entryDy=0;endArrow=ERmany;endFill=0;" edge="1" parent="1" source="ZsCwSDWXHQRcliCqkR90-2" target="NCW903Lwlvp0PCIu4Wwk-20">
          <mxGeometry relative="1" as="geometry"/>
        </mxCell>
        <mxCell id="NCW903Lwlvp0PCIu4Wwk-34" style="edgeStyle=orthogonalEdgeStyle;rounded=0;orthogonalLoop=1;jettySize=auto;html=1;exitX=1;exitY=0.5;exitDx=0;exitDy=0;endArrow=ERmany;endFill=0;" edge="1" parent="1" source="ZsCwSDWXHQRcliCqkR90-28" target="NCW903Lwlvp0PCIu4Wwk-18">
          <mxGeometry relative="1" as="geometry"/>
        </mxCell>
        <mxCell id="NCW903Lwlvp0PCIu4Wwk-35" style="edgeStyle=orthogonalEdgeStyle;rounded=0;orthogonalLoop=1;jettySize=auto;html=1;exitX=1;exitY=0.5;exitDx=0;exitDy=0;entryX=0;entryY=0.5;entryDx=0;entryDy=0;endArrow=ERmany;endFill=0;" edge="1" parent="1" source="NCW903Lwlvp0PCIu4Wwk-2" target="ZsCwSDWXHQRcliCqkR90-30">
          <mxGeometry relative="1" as="geometry"/>
        </mxCell>
        <mxCell id="NCW903Lwlvp0PCIu4Wwk-42" style="edgeStyle=orthogonalEdgeStyle;rounded=0;orthogonalLoop=1;jettySize=auto;html=1;exitX=1;exitY=0.5;exitDx=0;exitDy=0;endArrow=ERmany;endFill=0;" edge="1" parent="1" source="ZsCwSDWXHQRcliCqkR90-2" target="ZsCwSDWXHQRcliCqkR90-15">
          <mxGeometry relative="1" as="geometry"/>
        </mxCell>
        <mxCell id="NCW903Lwlvp0PCIu4Wwk-48" style="edgeStyle=orthogonalEdgeStyle;rounded=0;orthogonalLoop=1;jettySize=auto;html=1;exitX=1;exitY=0.5;exitDx=0;exitDy=0;endArrow=ERmany;endFill=0;" edge="1" parent="1" source="NCW903Lwlvp0PCIu4Wwk-2" target="NCW903Lwlvp0PCIu4Wwk-46">
          <mxGeometry relative="1" as="geometry">
            <Array as="points">
              <mxPoint x="90" y="191"/>
              <mxPoint x="90" y="585"/>
            </Array>
          </mxGeometry>
        </mxCell>
      </root>
    </mxGraphModel>
  </diagram>
</mxfile>
